<svg width="36" height="36" viewBox="0 0 36 36" fill="none" xmlns="http://www.w3.org/2000/svg">
<g clip-path="url(#clip0_44_10)">
<path d="M25.512 34.088C23.136 34.088 22.392 31.52 22.392 27.896C22.392 23.936 23.184 17.792 24.624 11.792L23.904 11.6C20.064 16.448 15.96 23.336 13.752 27.632C12.12 30.752 10.824 32.648 9 32.648C6.72 32.648 6.792 29.648 7.656 26.84C8.952 22.688 10.32 17.72 10.608 12.2C9.864 11.552 9.384 10.376 9.384 8.912C9.384 6.872 10.752 5.768 12.24 5.768C13.752 5.768 14.856 7.016 14.856 9.488C14.856 12.68 14.184 16.76 12.84 20.984L13.416 21.176C16.104 16.184 19.056 12.08 21.504 9.224C22.944 7.568 24.48 6.56 26.016 6.56C27.504 6.56 28.632 7.472 28.632 9.752C28.632 14.168 26.52 21.32 26.28 28.496C27.552 28.88 28.2 30.08 28.2 31.328C28.2 33.032 27.024 34.088 25.512 34.088Z" fill="#ED4845"/>
</g>
<defs>
<clipPath id="clip0_44_10">
<rect width="36" height="36" fill="white"/>
</clipPath>
</defs>
</svg>
